<svg xmlns="http://www.w3.org/2000/svg" viewBox="0 0 1600 1000" preserveAspectRatio="xMidYMid slice">
  <defs>
    <radialGradient id="base" cx="50%" cy="35%" r="90%">
      <stop offset="0%" stop-color="#1a1a1f" />
      <stop offset="55%" stop-color="#0d0d0e" />
      <stop offset="100%" stop-color="#050505" />
    </radialGradient>

    <radialGradient id="sphereTL" cx="35%" cy="30%" r="70%">
      <stop offset="0%" stop-color="#3a4252" />
      <stop offset="55%" stop-color="#1c1f26" />
      <stop offset="100%" stop-color="#0a0a0c" />
    </radialGradient>

    <radialGradient id="sphereBR" cx="35%" cy="30%" r="70%">
      <stop offset="0%" stop-color="#33465a" />
      <stop offset="55%" stop-color="#181e24" />
      <stop offset="100%" stop-color="#0a0a0c" />
    </radialGradient>

    <filter id="soften" x="-50%" y="-50%" width="200%" height="200%">
      <feGaussianBlur stdDeviation="2" />
    </filter>

    <filter id="grain">
      <feTurbulence type="fractalNoise" baseFrequency="0.85" numOctaves="2" stitchTiles="stitch" result="noise" />
      <feColorMatrix in="noise" type="matrix" values="0 0 0 0 1  0 0 0 0 1  0 0 0 0 1  0 0 0 0.035 0" />
    </filter>

    <pattern id="dots" width="22" height="22" patternUnits="userSpaceOnUse">
      <circle cx="2" cy="2" r="1.4" fill="#f3efe7" opacity="0.35" />
    </pattern>

    <radialGradient id="dotFadeTR" cx="100%" cy="0%" r="75%">
      <stop offset="0%" stop-color="#fff" stop-opacity="1" />
      <stop offset="70%" stop-color="#fff" stop-opacity="0" />
    </radialGradient>
    <radialGradient id="dotFadeBL" cx="0%" cy="100%" r="75%">
      <stop offset="0%" stop-color="#fff" stop-opacity="1" />
      <stop offset="70%" stop-color="#fff" stop-opacity="0" />
    </radialGradient>
    <mask id="maskTR">
      <rect width="1600" height="1000" fill="url(#dotFadeTR)" />
    </mask>
    <mask id="maskBL">
      <rect width="1600" height="1000" fill="url(#dotFadeBL)" />
    </mask>
  </defs>

  <rect width="1600" height="1000" fill="url(#base)" />

  <!-- organic contour lines -->
  <path d="M -60.0,250.0 L -48.7,262.3 L -37.3,274.4 L -26.0,285.7 L -14.7,296.1 L -3.3,305.4 L 8.0,313.1 L 19.3,319.2 L 30.7,323.5 L 42.0,325.9 L 53.3,326.3 L 64.7,324.8 L 76.0,321.3 L 87.3,316.1 L 98.7,309.3 L 110.0,301.1 L 121.3,291.8 L 132.7,281.6 L 144.0,270.8 L 155.3,259.7 L 166.7,248.8 L 178.0,238.2 L 189.3,228.4 L 200.7,219.6 L 212.0,212.1 L 223.3,206.0 L 234.7,201.7 L 246.0,199.2 L 257.3,198.7 L 268.7,200.1 L 280.0,203.4 L 291.3,208.6 L 302.7,215.6 L 314.0,224.1 L 325.3,233.9 L 336.7,244.9 L 348.0,256.6 L 359.3,268.8 L 370.7,281.2 L 382.0,293.4 L 393.3,305.1 L 404.7,316.1 L 416.0,325.9 L 427.3,334.4 L 438.7,341.4 L 450.0,346.6 L 461.3,349.9 L 472.7,351.3 L 484.0,350.8 L 495.3,348.3 L 506.7,344.0 L 518.0,337.9 L 529.3,330.4 L 540.7,321.6 L 552.0,311.8 L 563.3,301.2 L 574.7,290.3 L 586.0,279.2 L 597.3,268.4 L 608.7,258.2 L 620.0,248.9" fill="none" stroke="#e7e2d6" stroke-width="1" opacity="0.32" />
  <path d="M -60.0,318.1 L -48.8,330.6 L -37.6,342.0 L -26.4,352.0 L -15.2,360.3 L -4.0,366.5 L 7.2,370.7 L 18.4,372.7 L 29.6,372.3 L 40.8,369.8 L 52.0,365.1 L 63.2,358.4 L 74.4,350.0 L 85.6,340.1 L 96.8,329.0 L 108.0,317.1 L 119.2,304.7 L 130.4,292.3 L 141.6,280.2 L 152.8,268.8 L 164.0,258.5 L 175.2,249.6 L 186.4,242.3 L 197.6,237.0 L 208.8,233.8 L 220.0,232.7 L 231.2,234.0 L 242.4,237.5 L 253.6,243.1 L 264.8,250.8 L 276.0,260.2 L 287.2,271.2 L 298.4,283.5 L 309.6,296.6 L 320.8,310.2 L 332.0,324.0 L 343.2,337.5 L 354.4,350.4 L 365.6,362.3 L 376.8,372.8 L 388.0,381.7 L 399.2,388.7 L 410.4,393.7 L 421.6,396.5 L 432.8,397.0 L 444.0,395.2 L 455.2,391.3 L 466.4,385.3 L 477.6,377.5 L 488.8,368.1 L 500.0,357.4 L 511.2,345.7 L 522.4,333.5 L 533.6,321.0 L 544.8,308.8 L 556.0,297.1 L 567.2,286.3 L 578.4,276.9 L 589.6,269.0 L 600.8,262.9 L 612.0,258.9" fill="none" stroke="#e7e2d6" stroke-width="1" opacity="0.296" />
  <path d="M -60.0,386.8 L -48.9,397.8 L -37.9,406.7 L -26.8,413.4 L -15.7,417.6 L -4.7,419.3 L 6.4,418.4 L 17.5,415.0 L 28.5,409.1 L 39.6,401.0 L 50.7,391.0 L 61.7,379.4 L 72.8,366.6 L 83.9,353.1 L 94.9,339.2 L 106.0,325.4 L 117.1,312.2 L 128.1,300.1 L 139.2,289.3 L 150.3,280.4 L 161.3,273.6 L 172.4,269.1 L 183.5,267.0 L 194.5,267.6 L 205.6,270.8 L 216.7,276.4 L 227.7,284.4 L 238.8,294.5 L 249.9,306.5 L 260.9,319.9 L 272.0,334.3 L 283.1,349.4 L 294.1,364.6 L 305.2,379.6 L 316.3,393.8 L 327.3,406.8 L 338.4,418.3 L 349.5,427.8 L 360.5,435.2 L 371.6,440.2 L 382.7,442.6 L 393.7,442.5 L 404.8,439.8 L 415.9,434.6 L 426.9,427.1 L 438.0,417.7 L 449.1,406.5 L 460.1,394.0 L 471.2,380.7 L 482.3,366.8 L 493.3,352.9 L 504.4,339.5 L 515.5,327.0 L 526.5,315.9 L 537.6,306.4 L 548.7,298.9 L 559.7,293.7 L 570.8,290.9 L 581.9,290.7 L 592.9,293.1 L 604.0,298.0" fill="none" stroke="#e7e2d6" stroke-width="1" opacity="0.272" />
  <path d="M -60.0,452.3 L -49.1,459.7 L -38.1,464.3 L -27.2,466.0 L -16.3,464.7 L -5.3,460.5 L 5.6,453.7 L 16.5,444.3 L 27.5,432.9 L 38.4,419.7 L 49.3,405.2 L 60.3,390.0 L 71.2,374.6 L 82.1,359.4 L 93.1,345.2 L 104.0,332.2 L 114.9,321.1 L 125.9,312.2 L 136.8,305.8 L 147.7,302.1 L 158.7,301.3 L 169.6,303.5 L 180.5,308.6 L 191.5,316.4 L 202.4,326.8 L 213.3,339.3 L 224.3,353.6 L 235.2,369.2 L 246.1,385.7 L 257.1,402.5 L 268.0,419.0 L 278.9,434.8 L 289.9,449.3 L 300.8,462.0 L 311.7,472.6 L 322.7,480.7 L 333.6,486.1 L 344.5,488.6 L 355.5,488.2 L 366.4,484.9 L 377.3,478.8 L 388.3,470.1 L 399.2,459.2 L 410.1,446.4 L 421.1,432.3 L 432.0,417.2 L 442.9,401.8 L 453.9,386.6 L 464.8,372.0 L 475.7,358.6 L 486.7,346.9 L 497.6,337.3 L 508.5,330.2 L 519.5,325.7 L 530.4,324.1 L 541.3,325.5 L 552.3,329.7 L 563.2,336.8 L 574.1,346.4 L 585.1,358.4 L 596.0,372.2" fill="none" stroke="#e7e2d6" stroke-width="1" opacity="0.248" />
  <path d="M -60.0,510.6 L -49.2,512.7 L -38.4,511.3 L -27.6,506.8 L -16.8,499.1 L -6.0,488.7 L 4.8,475.9 L 15.6,461.2 L 26.4,445.1 L 37.2,428.2 L 48.0,411.2 L 58.8,394.7 L 69.6,379.3 L 80.4,365.5 L 91.2,353.9 L 102.0,344.8 L 112.8,338.8 L 123.6,335.9 L 134.4,336.3 L 145.2,340.0 L 156.0,347.0 L 166.8,356.9 L 177.6,369.5 L 188.4,384.4 L 199.2,400.9 L 210.0,418.7 L 220.8,437.0 L 231.6,455.2 L 242.4,472.8 L 253.2,489.1 L 264.0,503.6 L 274.8,515.7 L 285.6,525.1 L 296.4,531.4 L 307.2,534.6 L 318.0,534.4 L 328.8,530.9 L 339.6,524.2 L 350.4,514.7 L 361.2,502.6 L 372.0,488.5 L 382.8,472.8 L 393.6,456.1 L 404.4,439.1 L 415.2,422.3 L 426.0,406.5 L 436.8,392.1 L 447.6,379.7 L 458.4,369.8 L 469.2,362.7 L 480.0,358.7 L 490.8,358.0 L 501.6,360.7 L 512.4,366.6 L 523.2,375.5 L 534.0,387.3 L 544.8,401.4 L 555.6,417.5 L 566.4,434.9 L 577.2,453.1 L 588.0,471.4" fill="none" stroke="#e7e2d6" stroke-width="1" opacity="0.224" />
  <path d="M -60.0,558.4 L -49.3,553.8 L -38.7,545.7 L -28.0,534.5 L -17.3,520.5 L -6.7,504.4 L 4.0,486.7 L 14.7,468.2 L 25.3,449.6 L 36.0,431.5 L 46.7,414.8 L 57.3,399.9 L 68.0,387.6 L 78.7,378.4 L 89.3,372.4 L 100.0,370.2 L 110.7,371.6 L 121.3,376.8 L 132.0,385.5 L 142.7,397.4 L 153.3,412.1 L 164.0,429.2 L 174.7,447.9 L 185.3,467.6 L 196.0,487.6 L 206.7,507.2 L 217.3,525.6 L 228.0,542.2 L 238.7,556.5 L 249.3,567.8 L 260.0,575.8 L 270.7,580.2 L 281.3,580.9 L 292.0,577.8 L 302.7,571.2 L 313.3,561.3 L 324.0,548.5 L 334.7,533.2 L 345.3,516.1 L 356.0,497.9 L 366.7,479.2 L 377.3,460.8 L 388.0,443.4 L 398.7,427.7 L 409.3,414.2 L 420.0,403.6 L 430.7,396.2 L 441.3,392.3 L 452.0,392.1 L 462.7,395.7 L 473.3,402.9 L 484.0,413.5 L 494.7,427.1 L 505.3,443.2 L 516.0,461.3 L 526.7,480.6 L 537.3,500.6 L 548.0,520.4 L 558.7,539.4 L 569.3,556.9 L 580.0,572.3" fill="none" stroke="#e7e2d6" stroke-width="1" opacity="0.2" />
  <path d="M -60.0,593.5 L -49.5,581.8 L -38.9,566.9 L -28.4,549.6 L -17.9,530.5 L -7.3,510.3 L 3.2,489.9 L 13.7,470.2 L 24.3,451.9 L 34.8,435.8 L 45.3,422.6 L 55.9,412.7 L 66.4,406.7 L 76.9,404.7 L 87.5,406.9 L 98.0,413.3 L 108.5,423.5 L 119.1,437.2 L 129.6,454.0 L 140.1,473.1 L 150.7,493.9 L 161.2,515.5 L 171.7,537.1 L 182.3,557.9 L 192.8,577.2 L 203.3,594.0 L 213.9,608.0 L 224.4,618.4 L 234.9,624.9 L 245.5,627.3 L 256.0,625.6 L 266.5,619.7 L 277.1,610.0 L 287.6,596.9 L 298.1,581.0 L 308.7,562.8 L 319.2,543.1 L 329.7,522.7 L 340.3,502.6 L 350.8,483.3 L 361.3,465.9 L 371.9,450.9 L 382.4,439.0 L 392.9,430.7 L 403.5,426.4 L 414.0,426.2 L 424.5,430.1 L 435.1,438.2 L 445.6,449.9 L 456.1,465.0 L 466.7,482.8 L 477.2,502.8 L 487.7,524.0 L 498.3,545.7 L 508.8,567.1 L 519.3,587.3 L 529.9,605.6 L 540.4,621.3 L 550.9,633.8 L 561.5,642.7 L 572.0,647.5" fill="none" stroke="#e7e2d6" stroke-width="1" opacity="0.176" />
  <path d="M -60.0,615.4 L -49.6,597.1 L -39.2,576.6 L -28.8,554.8 L -18.4,532.7 L -8.0,511.1 L 2.4,491.0 L 12.8,473.3 L 23.2,458.8 L 33.6,447.9 L 44.0,441.4 L 54.4,439.3 L 64.8,442.0 L 75.2,449.2 L 85.6,460.7 L 96.0,476.0 L 106.4,494.6 L 116.8,515.7 L 127.2,538.4 L 137.6,561.9 L 148.0,585.1 L 158.4,607.2 L 168.8,627.3 L 179.2,644.5 L 189.6,658.1 L 200.0,667.7 L 210.4,672.8 L 220.8,673.3 L 231.2,669.2 L 241.6,660.6 L 252.0,648.0 L 262.4,632.0 L 272.8,613.1 L 283.2,592.2 L 293.6,570.2 L 304.0,548.1 L 314.4,526.8 L 324.8,507.2 L 335.2,490.2 L 345.6,476.4 L 356.0,466.5 L 366.4,461.0 L 376.8,460.1 L 387.2,463.7 L 397.6,472.0 L 408.0,484.4 L 418.4,500.6 L 428.8,519.8 L 439.2,541.3 L 449.6,564.3 L 460.0,587.8 L 470.4,610.9 L 480.8,632.6 L 491.2,652.0 L 501.6,668.5 L 512.0,681.2 L 522.4,689.8 L 532.8,693.9 L 543.2,693.3 L 553.6,688.1 L 564.0,678.6" fill="none" stroke="#e7e2d6" stroke-width="1" opacity="0.152" />
  <path d="M -60.0,625.5 L -49.7,602.2 L -39.5,578.2 L -29.2,554.6 L -18.9,532.5 L -8.7,512.8 L 1.6,496.5 L 11.9,484.2 L 22.1,476.6 L 32.4,474.0 L 42.7,476.6 L 52.9,484.3 L 63.2,496.7 L 73.5,513.3 L 83.7,533.6 L 94.0,556.5 L 104.3,581.1 L 114.5,606.4 L 124.8,631.4 L 135.1,654.8 L 145.3,675.9 L 155.6,693.5 L 165.9,707.1 L 176.1,716.0 L 186.4,720.0 L 196.7,718.7 L 206.9,712.4 L 217.2,701.3 L 227.5,686.0 L 237.7,667.1 L 248.0,645.5 L 258.3,622.2 L 268.5,598.2 L 278.8,574.6 L 289.1,552.5 L 299.3,532.8 L 309.6,516.5 L 319.9,504.2 L 330.1,496.6 L 340.4,494.0 L 350.7,496.6 L 360.9,504.3 L 371.2,516.7 L 381.5,533.3 L 391.7,553.6 L 402.0,576.5 L 412.3,601.1 L 422.5,626.4 L 432.8,651.4 L 443.1,674.8 L 453.3,695.9 L 463.6,713.5 L 473.9,727.1 L 484.1,736.0 L 494.4,740.0 L 504.7,738.7 L 514.9,732.4 L 525.2,721.3 L 535.5,706.0 L 545.7,687.1 L 556.0,665.5" fill="none" stroke="#e7e2d6" stroke-width="1" opacity="0.128" />
  <path d="M -60.0,627.0 L -49.9,601.2 L -39.7,576.8 L -29.6,554.7 L -19.5,536.1 L -9.3,521.9 L 0.8,512.6 L 10.9,508.9 L 21.1,510.8 L 31.2,518.4 L 41.3,531.2 L 51.5,548.9 L 61.6,570.4 L 71.7,595.0 L 81.9,621.5 L 92.0,648.8 L 102.1,675.5 L 112.3,700.5 L 122.4,722.8 L 132.5,741.2 L 142.7,755.0 L 152.8,763.6 L 162.9,766.6 L 173.1,764.0 L 183.2,755.8 L 193.3,742.4 L 203.5,724.6 L 213.6,703.1 L 223.7,679.0 L 233.9,653.4 L 244.0,627.6 L 254.1,602.7 L 264.3,579.8 L 274.4,560.2 L 284.5,544.7 L 294.7,534.1 L 304.8,528.9 L 314.9,529.3 L 325.1,535.3 L 335.2,546.8 L 345.3,563.2 L 355.5,583.8 L 365.6,607.7 L 375.7,633.8 L 385.9,661.0 L 396.0,688.0 L 406.1,713.6 L 416.3,736.7 L 426.4,756.2 L 436.5,771.3 L 446.7,781.4 L 456.8,785.9 L 466.9,784.8 L 477.1,778.0 L 487.2,766.0 L 497.3,749.3 L 507.5,728.7 L 517.6,705.2 L 527.7,679.9 L 537.9,654.0 L 548.0,628.7" fill="none" stroke="#e7e2d6" stroke-width="1" opacity="0.104" />
  <path d="M -60.0,624.4 L -50.0,599.6 L -40.0,578.2 L -30.0,561.4 L -20.0,549.8 L -10.0,544.2 L 0.0,544.7 L 10.0,551.6 L 20.0,564.3 L 30.0,582.4 L 40.0,605.0 L 50.0,631.0 L 60.0,659.3 L 70.0,688.5 L 80.0,717.2 L 90.0,744.1 L 100.0,767.9 L 110.0,787.5 L 120.0,802.0 L 130.0,810.7 L 140.0,813.2 L 150.0,809.5 L 160.0,799.7 L 170.0,784.4 L 180.0,764.4 L 190.0,740.5 L 200.0,714.1 L 210.0,686.3 L 220.0,658.7 L 230.0,632.5 L 240.0,609.0 L 250.0,589.4 L 260.0,574.8 L 270.0,565.7 L 280.0,562.7 L 290.0,566.0 L 300.0,575.4 L 310.0,590.5 L 320.0,610.6 L 330.0,634.8 L 340.0,662.0 L 350.0,690.8 L 360.0,720.0 L 370.0,748.1 L 380.0,773.8 L 390.0,795.9 L 400.0,813.4 L 410.0,825.5 L 420.0,831.6 L 430.0,831.4 L 440.0,825.1 L 450.0,812.9 L 460.0,795.4 L 470.0,773.6 L 480.0,748.5 L 490.0,721.3 L 500.0,693.4 L 510.0,666.2 L 520.0,641.1 L 530.0,619.1 L 540.0,601.6" fill="none" stroke="#e7e2d6" stroke-width="1" opacity="0.08" />

<path d="M 1660.0,696.3 L 1646.8,701.8 L 1633.6,705.6 L 1620.4,707.4 L 1607.2,707.3 L 1594.0,705.2 L 1580.8,701.4 L 1567.6,695.9 L 1554.4,689.0 L 1541.2,680.9 L 1528.0,672.0 L 1514.8,662.5 L 1501.6,653.0 L 1488.4,643.7 L 1475.2,635.0 L 1462.0,627.2 L 1448.8,620.6 L 1435.6,615.5 L 1422.4,612.2 L 1409.2,610.7 L 1396.0,611.1 L 1382.8,613.5 L 1369.6,617.7 L 1356.4,623.7 L 1343.2,631.3 L 1330.0,640.3 L 1316.8,650.3 L 1303.6,661.0 L 1290.4,672.1 L 1277.2,683.2 L 1264.0,694.0 L 1250.8,704.0 L 1237.6,713.0 L 1224.4,720.7 L 1211.2,726.8 L 1198.0,731.2 L 1184.8,733.7 L 1171.6,734.2 L 1158.4,732.8 L 1145.2,729.5 L 1132.0,724.6 L 1118.8,718.1 L 1105.6,710.4 L 1092.4,701.7 L 1079.2,692.4 L 1066.0,682.8 L 1052.8,673.4 L 1039.6,664.4 L 1026.4,656.3 L 1013.2,649.3 L 1000.0,643.7" fill="none" stroke="#dce8f2" stroke-width="1" opacity="0.16" />
  <path d="M 1660.0,670.1 L 1647.0,671.8 L 1634.0,671.1 L 1621.0,668.3 L 1608.0,663.3 L 1595.0,656.4 L 1582.0,647.9 L 1569.0,638.1 L 1556.0,627.5 L 1543.0,616.5 L 1530.0,605.5 L 1517.0,595.0 L 1504.0,585.4 L 1491.0,577.0 L 1478.0,570.4 L 1465.0,565.6 L 1452.0,563.0 L 1439.0,562.6 L 1426.0,564.5 L 1413.0,568.7 L 1400.0,575.1 L 1387.0,583.3 L 1374.0,593.3 L 1361.0,604.5 L 1348.0,616.6 L 1335.0,629.2 L 1322.0,641.8 L 1309.0,654.0 L 1296.0,665.3 L 1283.0,675.5 L 1270.0,684.0 L 1257.0,690.6 L 1244.0,695.1 L 1231.0,697.4 L 1218.0,697.3 L 1205.0,695.0 L 1192.0,690.5 L 1179.0,684.1 L 1166.0,676.0 L 1153.0,666.5 L 1140.0,656.1 L 1127.0,645.2 L 1114.0,634.1 L 1101.0,623.4 L 1088.0,613.6 L 1075.0,604.9 L 1062.0,597.7 L 1049.0,592.4 L 1036.0,589.2 L 1023.0,588.3 L 1010.0,589.6" fill="none" stroke="#dce8f2" stroke-width="1" opacity="0.142" />
  <path d="M 1660.0,635.2 L 1647.2,631.7 L 1634.4,625.7 L 1621.6,617.5 L 1608.8,607.5 L 1596.0,596.1 L 1583.2,583.8 L 1570.4,571.2 L 1557.6,558.7 L 1544.8,547.0 L 1532.0,536.4 L 1519.2,527.6 L 1506.4,520.8 L 1493.6,516.4 L 1480.8,514.5 L 1468.0,515.4 L 1455.2,518.9 L 1442.4,525.0 L 1429.6,533.4 L 1416.8,544.0 L 1404.0,556.1 L 1391.2,569.5 L 1378.4,583.6 L 1365.6,597.8 L 1352.8,611.7 L 1340.0,624.6 L 1327.2,636.2 L 1314.4,645.9 L 1301.6,653.5 L 1288.8,658.5 L 1276.0,661.0 L 1263.2,660.7 L 1250.4,657.8 L 1237.6,652.4 L 1224.8,644.7 L 1212.0,635.1 L 1199.2,624.1 L 1186.4,612.0 L 1173.6,599.4 L 1160.8,586.8 L 1148.0,574.8 L 1135.2,563.9 L 1122.4,554.6 L 1109.6,547.3 L 1096.8,542.2 L 1084.0,539.7 L 1071.2,539.9 L 1058.4,542.8 L 1045.6,548.2 L 1032.8,556.1 L 1020.0,566.2" fill="none" stroke="#dce8f2" stroke-width="1" opacity="0.124" />
  <path d="M 1660.0,589.0 L 1647.4,579.7 L 1634.8,568.3 L 1622.2,555.3 L 1609.6,541.4 L 1597.0,527.1 L 1584.4,513.1 L 1571.8,500.0 L 1559.2,488.4 L 1546.6,478.9 L 1534.0,471.9 L 1521.4,467.7 L 1508.8,466.6 L 1496.2,468.6 L 1483.6,473.7 L 1471.0,481.7 L 1458.4,492.2 L 1445.8,504.9 L 1433.2,519.3 L 1420.6,534.8 L 1408.0,550.6 L 1395.4,566.3 L 1382.8,581.2 L 1370.2,594.6 L 1357.6,606.1 L 1345.0,615.1 L 1332.4,621.3 L 1319.8,624.5 L 1307.2,624.6 L 1294.6,621.5 L 1282.0,615.6 L 1269.4,607.0 L 1256.8,596.2 L 1244.2,583.6 L 1231.6,569.9 L 1219.0,555.6 L 1206.4,541.5 L 1193.8,528.0 L 1181.2,516.0 L 1168.6,505.8 L 1156.0,498.0 L 1143.4,492.9 L 1130.8,490.9 L 1118.2,491.9 L 1105.6,496.1 L 1093.0,503.2 L 1080.4,513.0 L 1067.8,525.1 L 1055.2,539.0 L 1042.6,554.2 L 1030.0,570.1" fill="none" stroke="#dce8f2" stroke-width="1" opacity="0.106" />
  <path d="M 1660.0,530.7 L 1647.6,516.2 L 1635.2,500.6 L 1622.8,484.6 L 1610.4,468.9 L 1598.0,454.3 L 1585.6,441.5 L 1573.2,431.2 L 1560.8,423.7 L 1548.4,419.6 L 1536.0,419.0 L 1523.6,422.0 L 1511.2,428.5 L 1498.8,438.2 L 1486.4,450.8 L 1474.0,465.6 L 1461.6,482.1 L 1449.2,499.5 L 1436.8,517.2 L 1424.4,534.2 L 1412.0,549.9 L 1399.6,563.6 L 1387.2,574.8 L 1374.8,582.9 L 1362.4,587.6 L 1350.0,588.7 L 1337.6,586.3 L 1325.2,580.4 L 1312.8,571.4 L 1300.4,559.7 L 1288.0,545.9 L 1275.6,530.7 L 1263.2,514.7 L 1250.8,498.8 L 1238.4,483.7 L 1226.0,470.1 L 1213.6,458.6 L 1201.2,449.9 L 1188.8,444.4 L 1176.4,442.4 L 1164.0,443.9 L 1151.6,449.0 L 1139.2,457.4 L 1126.8,468.8 L 1114.4,482.8 L 1102.0,498.7 L 1089.6,515.8 L 1077.2,533.5 L 1064.8,550.8 L 1052.4,567.2 L 1040.0,581.8" fill="none" stroke="#dce8f2" stroke-width="1" opacity="0.088" />
  <path d="M 1660.0,462.0 L 1647.8,444.1 L 1635.6,426.6 L 1623.4,410.3 L 1611.2,396.0 L 1599.0,384.5 L 1586.8,376.3 L 1574.6,371.9 L 1562.4,371.5 L 1550.2,375.2 L 1538.0,382.9 L 1525.8,394.2 L 1513.6,408.5 L 1501.4,425.4 L 1489.2,443.9 L 1477.0,463.3 L 1464.8,482.6 L 1452.6,501.0 L 1440.4,517.5 L 1428.2,531.5 L 1416.0,542.3 L 1403.8,549.4 L 1391.6,552.6 L 1379.4,551.6 L 1367.2,546.7 L 1355.0,538.0 L 1342.8,526.0 L 1330.6,511.4 L 1318.4,494.8 L 1306.2,477.2 L 1294.0,459.4 L 1281.8,442.3 L 1269.6,426.7 L 1257.4,413.5 L 1245.2,403.4 L 1233.0,396.8 L 1220.8,394.1 L 1208.6,395.4 L 1196.4,400.9 L 1184.2,410.1 L 1172.0,422.8 L 1159.8,438.4 L 1147.6,456.0 L 1135.4,475.1 L 1123.2,494.5 L 1111.0,513.5 L 1098.8,531.2 L 1086.6,546.7 L 1074.4,559.4 L 1062.2,568.7 L 1050.0,574.1" fill="none" stroke="#dce8f2" stroke-width="1" opacity="0.07" />
  <path d="M 1660.0,386.7 L 1648.0,368.4 L 1636.0,352.2 L 1624.0,339.1 L 1612.0,329.7 L 1600.0,324.5 L 1588.0,323.9 L 1576.0,327.9 L 1564.0,336.4 L 1552.0,349.0 L 1540.0,365.0 L 1528.0,383.8 L 1516.0,404.3 L 1504.0,425.6 L 1492.0,446.7 L 1480.0,466.4 L 1468.0,483.9 L 1456.0,498.3 L 1444.0,508.8 L 1432.0,515.1 L 1420.0,516.8 L 1408.0,513.8 L 1396.0,506.5 L 1384.0,495.1 L 1372.0,480.3 L 1360.0,462.9 L 1348.0,443.8 L 1336.0,424.1 L 1324.0,404.8 L 1312.0,386.8 L 1300.0,371.2 L 1288.0,358.9 L 1276.0,350.3 L 1264.0,346.2 L 1252.0,346.6 L 1240.0,351.7 L 1228.0,361.1 L 1216.0,374.5 L 1204.0,391.2 L 1192.0,410.4 L 1180.0,431.2 L 1168.0,452.6 L 1156.0,473.4 L 1144.0,492.7 L 1132.0,509.6 L 1120.0,523.2 L 1108.0,532.8 L 1096.0,538.1 L 1084.0,538.7 L 1072.0,534.8 L 1060.0,526.5" fill="none" stroke="#dce8f2" stroke-width="1" opacity="0.052" />

  <!-- dot grids, faded toward the center -->
  <rect width="1600" height="1000" fill="url(#dots)" mask="url(#maskTR)" />
  <rect width="1600" height="1000" fill="url(#dots)" mask="url(#maskBL)" />

  <!-- solid soft spheres -->
  <circle cx="200" cy="150" r="310" fill="url(#sphereTL)" filter="url(#soften)" />
  <circle cx="1430" cy="880" r="360" fill="url(#sphereBR)" filter="url(#soften)" />

  <rect width="1600" height="1000" filter="url(#grain)" />
</svg>
