<svg xmlns="http://www.w3.org/2000/svg" viewBox="0 0 1600 1000" preserveAspectRatio="xMidYMid slice">
  <defs>
    <radialGradient id="base" cx="50%" cy="30%" r="90%">
      <stop offset="0%" stop-color="#1a1a1f" />
      <stop offset="55%" stop-color="#0d0d0e" />
      <stop offset="100%" stop-color="#050505" />
    </radialGradient>

    <clipPath id="clipTL">
      <circle cx="200" cy="150" r="310" />
    </clipPath>
    <clipPath id="clipBR">
      <circle cx="1430" cy="880" r="360" />
    </clipPath>

    <filter id="heavyBlur" x="-80%" y="-80%" width="260%" height="260%">
      <feGaussianBlur stdDeviation="70" />
    </filter>

    <filter id="rimGlow" x="-60%" y="-60%" width="220%" height="220%">
      <feGaussianBlur stdDeviation="6" />
    </filter>

    <filter id="beamBlur" x="-60%" y="-60%" width="220%" height="220%">
      <feGaussianBlur stdDeviation="45" />
    </filter>

    <filter id="grain">
      <feTurbulence type="fractalNoise" baseFrequency="0.85" numOctaves="2" stitchTiles="stitch" result="noise" />
      <feColorMatrix in="noise" type="matrix" values="0 0 0 0 1  0 0 0 0 1  0 0 0 0 1  0 0 0 0.035 0" />
    </filter>

    <pattern id="dots" width="44" height="44" patternUnits="userSpaceOnUse">
      <path d="M 44 0 L 0 0 0 44" fill="none" stroke="#f3efe7" stroke-width="1" opacity="0.3" />
    </pattern>

    <radialGradient id="dotFadeTR" cx="100%" cy="0%" r="75%">
      <stop offset="0%" stop-color="#fff" stop-opacity="1" />
      <stop offset="70%" stop-color="#fff" stop-opacity="0" />
    </radialGradient>
    <radialGradient id="dotFadeBL" cx="0%" cy="100%" r="75%">
      <stop offset="0%" stop-color="#fff" stop-opacity="1" />
      <stop offset="70%" stop-color="#fff" stop-opacity="0" />
    </radialGradient>
    <mask id="maskTR">
      <rect width="1600" height="1000" fill="url(#dotFadeTR)" />
    </mask>
    <mask id="maskBL">
      <rect width="1600" height="1000" fill="url(#dotFadeBL)" />
    </mask>

    <linearGradient id="beamGrad" x1="20%" y1="0%" x2="70%" y2="100%">
      <stop offset="0%" stop-color="#e8d9b5" stop-opacity="0.16" />
      <stop offset="55%" stop-color="#e8d9b5" stop-opacity="0.05" />
      <stop offset="100%" stop-color="#e8d9b5" stop-opacity="0" />
    </linearGradient>
  </defs>

  <rect width="1600" height="1000" fill="url(#base)" />

  <!-- soft diagonal light beam -->
  <rect x="150" y="-200" width="520" height="1200" fill="url(#beamGrad)" filter="url(#beamBlur)" transform="rotate(18 500 400)" />

  <!-- organic contour lines -->
  <path d="M -60.0,230.0 L -48.0,240.8 L -36.0,251.4 L -24.0,261.5 L -12.0,270.9 L 0.0,279.3 L 12.0,286.6 L 24.0,292.6 L 36.0,297.2 L 48.0,300.2 L 60.0,301.7 L 72.0,301.5 L 84.0,299.8 L 96.0,296.6 L 108.0,291.9 L 120.0,286.0 L 132.0,278.9 L 144.0,270.8 L 156.0,262.1 L 168.0,252.8 L 180.0,243.3 L 192.0,233.8 L 204.0,224.6 L 216.0,215.8 L 228.0,207.8 L 240.0,200.7 L 252.0,194.7 L 264.0,190.1 L 276.0,186.8 L 288.0,185.1 L 300.0,185.0 L 312.0,186.5 L 324.0,189.5 L 336.0,194.1 L 348.0,200.1 L 360.0,207.4 L 372.0,215.8 L 384.0,225.2 L 396.0,235.2 L 408.0,245.8 L 420.0,256.7 L 432.0,267.5 L 444.0,278.1 L 456.0,288.2 L 468.0,297.5 L 480.0,306.0 L 492.0,313.3 L 504.0,319.2 L 516.0,323.8 L 528.0,326.9 L 540.0,328.3 L 552.0,328.2 L 564.0,326.5 L 576.0,323.2 L 588.0,318.6 L 600.0,312.6 L 612.0,305.5 L 624.0,297.5 L 636.0,288.8 L 648.0,279.5 L 660.0,270.0" fill="none" stroke="#e7e2d6" stroke-width="1" opacity="0.34" />
  <path d="M -60.0,292.3 L -48.1,303.6 L -36.2,314.0 L -24.3,323.3 L -12.4,331.2 L -0.5,337.6 L 11.4,342.3 L 23.3,345.2 L 35.2,346.3 L 47.1,345.4 L 59.0,342.8 L 70.9,338.4 L 82.8,332.4 L 94.7,325.0 L 106.6,316.4 L 118.5,306.8 L 130.4,296.5 L 142.3,285.7 L 154.2,274.9 L 166.1,264.2 L 178.0,254.1 L 189.9,244.7 L 201.8,236.3 L 213.7,229.2 L 225.6,223.6 L 237.5,219.6 L 249.4,217.4 L 261.3,217.0 L 273.2,218.5 L 285.1,221.8 L 297.0,226.9 L 308.9,233.7 L 320.8,242.0 L 332.7,251.5 L 344.6,262.1 L 356.5,273.6 L 368.4,285.5 L 380.3,297.7 L 392.2,309.8 L 404.1,321.5 L 416.0,332.5 L 427.9,342.6 L 439.8,351.5 L 451.7,359.0 L 463.6,364.9 L 475.5,369.1 L 487.4,371.5 L 499.3,372.0 L 511.2,370.7 L 523.1,367.5 L 535.0,362.7 L 546.9,356.2 L 558.8,348.4 L 570.7,339.5 L 582.6,329.7 L 594.5,319.2 L 606.4,308.4 L 618.3,297.6 L 630.2,287.0 L 642.1,277.1 L 654.0,267.9" fill="none" stroke="#e7e2d6" stroke-width="1" opacity="0.318" />
  <path d="M -60.0,356.0 L -48.2,366.3 L -36.4,375.1 L -24.6,382.0 L -12.8,387.1 L -1.0,390.0 L 10.8,390.8 L 22.6,389.4 L 34.4,386.0 L 46.2,380.5 L 58.0,373.3 L 69.8,364.5 L 81.6,354.3 L 93.4,343.1 L 105.2,331.3 L 117.0,319.1 L 128.8,306.9 L 140.6,295.2 L 152.4,284.1 L 164.2,274.1 L 176.0,265.5 L 187.8,258.5 L 199.6,253.3 L 211.4,250.2 L 223.2,249.1 L 235.0,250.2 L 246.8,253.4 L 258.6,258.7 L 270.4,266.0 L 282.2,275.0 L 294.0,285.5 L 305.8,297.2 L 317.6,309.9 L 329.4,323.2 L 341.2,336.8 L 353.0,350.2 L 364.8,363.2 L 376.6,375.3 L 388.4,386.3 L 400.2,395.9 L 412.0,403.8 L 423.8,409.8 L 435.6,413.8 L 447.4,415.7 L 459.2,415.4 L 471.0,412.9 L 482.8,408.5 L 494.6,402.1 L 506.4,394.1 L 518.2,384.5 L 530.0,373.8 L 541.8,362.3 L 553.6,350.2 L 565.4,338.0 L 577.2,326.0 L 589.0,314.5 L 600.8,304.0 L 612.6,294.6 L 624.4,286.8 L 636.2,280.7 L 648.0,276.5" fill="none" stroke="#e7e2d6" stroke-width="1" opacity="0.296" />
  <path d="M -60.0,418.0 L -48.3,425.8 L -36.6,431.4 L -24.9,434.6 L -13.2,435.4 L -1.5,433.7 L 10.2,429.6 L 21.9,423.2 L 33.6,414.8 L 45.3,404.7 L 57.0,393.0 L 68.7,380.3 L 80.4,367.0 L 92.1,353.3 L 103.8,339.8 L 115.5,326.9 L 127.2,315.0 L 138.9,304.4 L 150.6,295.5 L 162.3,288.6 L 174.0,284.0 L 185.7,281.6 L 197.4,281.8 L 209.1,284.4 L 220.8,289.4 L 232.5,296.7 L 244.2,306.0 L 255.9,317.2 L 267.6,330.0 L 279.3,343.8 L 291.0,358.5 L 302.7,373.4 L 314.4,388.3 L 326.1,402.7 L 337.8,416.2 L 349.5,428.3 L 361.2,438.9 L 372.9,447.5 L 384.6,453.9 L 396.3,458.0 L 408.0,459.7 L 419.7,458.8 L 431.4,455.6 L 443.1,450.0 L 454.8,442.3 L 466.5,432.8 L 478.2,421.7 L 489.9,409.3 L 501.6,396.1 L 513.3,382.5 L 525.0,368.9 L 536.7,355.7 L 548.4,343.4 L 560.1,332.3 L 571.8,322.8 L 583.5,315.1 L 595.2,309.6 L 606.9,306.4 L 618.6,305.7 L 630.3,307.4 L 642.0,311.5" fill="none" stroke="#e7e2d6" stroke-width="1" opacity="0.274" />
  <path d="M -60.0,475.3 L -48.4,479.1 L -36.8,480.1 L -25.2,478.4 L -13.6,473.9 L -2.0,466.8 L 9.6,457.4 L 21.2,446.0 L 32.8,433.0 L 44.4,418.8 L 56.0,403.9 L 67.6,388.7 L 79.2,373.9 L 90.8,359.7 L 102.4,346.8 L 114.0,335.6 L 125.6,326.4 L 137.2,319.6 L 148.8,315.3 L 160.4,313.8 L 172.0,315.1 L 183.6,319.1 L 195.2,325.9 L 206.8,335.1 L 218.4,346.6 L 230.0,360.0 L 241.6,374.8 L 253.2,390.6 L 264.8,407.0 L 276.4,423.5 L 288.0,439.5 L 299.6,454.5 L 311.2,468.2 L 322.8,480.1 L 334.4,489.9 L 346.0,497.1 L 357.6,501.8 L 369.2,503.7 L 380.8,502.7 L 392.4,499.0 L 404.0,492.7 L 415.6,484.0 L 427.2,473.1 L 438.8,460.5 L 450.4,446.6 L 462.0,431.9 L 473.6,416.7 L 485.2,401.7 L 496.8,387.3 L 508.4,374.0 L 520.0,362.3 L 531.6,352.4 L 543.2,344.9 L 554.8,339.8 L 566.4,337.5 L 578.0,337.9 L 589.6,341.2 L 601.2,347.2 L 612.8,355.7 L 624.4,366.6 L 636.0,379.4" fill="none" stroke="#e7e2d6" stroke-width="1" opacity="0.252" />
  <path d="M -60.0,525.0 L -48.5,523.5 L -37.0,519.0 L -25.5,511.5 L -14.0,501.4 L -2.5,488.9 L 9.0,474.6 L 20.5,459.0 L 32.0,442.5 L 43.5,425.8 L 55.0,409.4 L 66.5,393.9 L 78.0,379.9 L 89.5,367.9 L 101.0,358.2 L 112.5,351.2 L 124.0,347.2 L 135.5,346.3 L 147.0,348.6 L 158.5,354.1 L 170.0,362.5 L 181.5,373.6 L 193.0,387.1 L 204.5,402.5 L 216.0,419.3 L 227.5,437.0 L 239.0,455.1 L 250.5,472.9 L 262.0,489.8 L 273.5,505.4 L 285.0,519.1 L 296.5,530.5 L 308.0,539.2 L 319.5,545.0 L 331.0,547.6 L 342.5,547.1 L 354.0,543.5 L 365.5,536.8 L 377.0,527.4 L 388.5,515.6 L 400.0,501.7 L 411.5,486.4 L 423.0,470.1 L 434.5,453.4 L 446.0,436.9 L 457.5,421.1 L 469.0,406.6 L 480.5,394.0 L 492.0,383.5 L 503.5,375.8 L 515.0,370.9 L 526.5,369.1 L 538.0,370.5 L 549.5,375.1 L 561.0,382.6 L 572.5,393.0 L 584.0,405.9 L 595.5,420.7 L 607.0,437.2 L 618.5,454.8 L 630.0,472.8" fill="none" stroke="#e7e2d6" stroke-width="1" opacity="0.23" />
  <path d="M -60.0,564.9 L -48.6,557.4 L -37.2,546.9 L -25.8,533.6 L -14.4,518.2 L -3.0,501.2 L 8.4,483.1 L 19.8,464.8 L 31.2,446.8 L 42.6,429.8 L 54.0,414.5 L 65.4,401.3 L 76.8,390.9 L 88.2,383.5 L 99.6,379.5 L 111.0,379.1 L 122.4,382.2 L 133.8,388.8 L 145.2,398.7 L 156.6,411.5 L 168.0,426.9 L 179.4,444.2 L 190.8,463.0 L 202.2,482.5 L 213.6,502.2 L 225.0,521.2 L 236.4,539.1 L 247.8,555.1 L 259.2,568.7 L 270.6,579.5 L 282.0,587.1 L 293.4,591.3 L 304.8,591.8 L 316.2,588.9 L 327.6,582.5 L 339.0,572.9 L 350.4,560.5 L 361.8,545.8 L 373.2,529.2 L 384.6,511.4 L 396.0,493.1 L 407.4,474.9 L 418.8,457.6 L 430.2,441.6 L 441.6,427.7 L 453.0,416.3 L 464.4,407.8 L 475.8,402.7 L 487.2,401.0 L 498.6,403.0 L 510.0,408.4 L 521.4,417.3 L 532.8,429.1 L 544.2,443.7 L 555.6,460.5 L 567.0,478.8 L 578.4,498.2 L 589.8,517.9 L 601.2,537.2 L 612.6,555.5 L 624.0,572.2" fill="none" stroke="#e7e2d6" stroke-width="1" opacity="0.208" />
  <path d="M -60.0,593.9 L -48.7,580.2 L -37.4,564.0 L -26.1,545.7 L -14.8,526.2 L -3.5,506.2 L 7.8,486.4 L 19.1,467.7 L 30.4,450.7 L 41.7,436.2 L 53.0,424.6 L 64.3,416.5 L 75.6,412.2 L 86.9,411.8 L 98.2,415.4 L 109.5,422.9 L 120.8,434.0 L 132.1,448.4 L 143.4,465.5 L 154.7,484.7 L 166.0,505.4 L 177.3,526.7 L 188.6,547.9 L 199.9,568.2 L 211.2,587.0 L 222.5,603.4 L 233.8,617.0 L 245.1,627.2 L 256.4,633.8 L 267.7,636.3 L 279.0,634.9 L 290.3,629.6 L 301.6,620.5 L 312.9,608.1 L 324.2,592.9 L 335.5,575.4 L 346.8,556.4 L 358.1,536.5 L 369.4,516.5 L 380.7,497.2 L 392.0,479.4 L 403.3,463.8 L 414.6,450.8 L 425.9,441.2 L 437.2,435.2 L 448.5,433.1 L 459.8,435.0 L 471.1,440.8 L 482.4,450.4 L 493.7,463.5 L 505.0,479.5 L 516.3,497.8 L 527.6,518.0 L 538.9,539.1 L 550.2,560.4 L 561.5,581.2 L 572.8,600.7 L 584.1,618.3 L 595.4,633.1 L 606.7,644.9 L 618.0,653.0" fill="none" stroke="#e7e2d6" stroke-width="1" opacity="0.186" />
  <path d="M -60.0,612.1 L -48.8,592.9 L -37.6,572.0 L -26.4,550.3 L -15.2,528.6 L -4.0,508.0 L 7.2,489.1 L 18.4,472.7 L 29.6,459.6 L 40.8,450.3 L 52.0,445.2 L 63.2,444.4 L 74.4,448.1 L 85.6,456.2 L 96.8,468.2 L 108.0,483.9 L 119.2,502.6 L 130.4,523.6 L 141.6,546.0 L 152.8,569.1 L 164.0,592.0 L 175.2,613.7 L 186.4,633.4 L 197.6,650.5 L 208.8,664.1 L 220.0,673.9 L 231.2,679.5 L 242.4,680.7 L 253.6,677.4 L 264.8,669.8 L 276.0,658.2 L 287.2,643.2 L 298.4,625.3 L 309.6,605.3 L 320.8,583.9 L 332.0,562.2 L 343.2,540.8 L 354.4,520.8 L 365.6,502.9 L 376.8,487.8 L 388.0,476.3 L 399.2,468.7 L 410.4,465.4 L 421.6,466.5 L 432.8,472.0 L 444.0,481.8 L 455.2,495.5 L 466.4,512.5 L 477.6,532.2 L 488.8,553.9 L 500.0,576.8 L 511.2,599.9 L 522.4,622.3 L 533.6,643.3 L 544.8,662.0 L 556.0,677.7 L 567.2,689.8 L 578.4,697.9 L 589.6,701.6 L 600.8,700.9 L 612.0,695.7" fill="none" stroke="#e7e2d6" stroke-width="1" opacity="0.164" />
  <path d="M -60.0,620.8 L -48.9,597.5 L -37.8,573.9 L -26.7,551.1 L -15.6,529.9 L -4.5,511.4 L 6.6,496.3 L 17.7,485.2 L 28.8,478.7 L 39.9,477.0 L 51.0,480.3 L 62.1,488.4 L 73.2,501.0 L 84.3,517.7 L 95.4,537.7 L 106.5,560.3 L 117.6,584.5 L 128.7,609.5 L 139.8,634.0 L 150.9,657.3 L 162.0,678.2 L 173.1,696.1 L 184.2,710.1 L 195.3,719.8 L 206.4,724.7 L 217.5,724.6 L 228.6,719.7 L 239.7,710.1 L 250.8,696.2 L 261.9,678.8 L 273.0,658.4 L 284.1,636.0 L 295.2,612.6 L 306.3,589.1 L 317.4,566.5 L 328.5,545.9 L 339.6,528.1 L 350.7,513.8 L 361.8,503.8 L 372.9,498.4 L 384.0,497.8 L 395.1,502.2 L 406.2,511.4 L 417.3,525.0 L 428.4,542.5 L 439.5,563.2 L 450.6,586.3 L 461.7,610.8 L 472.8,635.7 L 483.9,660.1 L 495.0,682.9 L 506.1,703.2 L 517.2,720.2 L 528.3,733.3 L 539.4,741.9 L 550.5,745.6 L 561.6,744.4 L 572.7,738.4 L 583.8,727.8 L 594.9,713.0 L 606.0,694.8" fill="none" stroke="#e7e2d6" stroke-width="1" opacity="0.142" />
  <path d="M -60.0,622.7 L -49.0,597.6 L -38.0,573.9 L -27.0,552.7 L -16.0,535.0 L -5.0,521.6 L 6.0,513.1 L 17.0,509.8 L 28.0,512.0 L 39.0,519.6 L 50.0,532.2 L 61.0,549.5 L 72.0,570.6 L 83.0,594.6 L 94.0,620.5 L 105.0,647.3 L 116.0,673.7 L 127.0,698.8 L 138.0,721.3 L 149.0,740.3 L 160.0,755.1 L 171.0,764.9 L 182.0,769.5 L 193.0,768.7 L 204.0,762.4 L 215.0,751.1 L 226.0,735.2 L 237.0,715.4 L 248.0,692.8 L 259.0,668.1 L 270.0,642.7 L 281.0,617.6 L 292.0,593.9 L 303.0,572.7 L 314.0,555.0 L 325.0,541.6 L 336.0,533.1 L 347.0,529.8 L 358.0,532.0 L 369.0,539.6 L 380.0,552.2 L 391.0,569.5 L 402.0,590.6 L 413.0,614.6 L 424.0,640.5 L 435.0,667.3 L 446.0,693.7 L 457.0,718.8 L 468.0,741.3 L 479.0,760.3 L 490.0,775.1 L 501.0,784.9 L 512.0,789.5 L 523.0,788.7 L 534.0,782.4 L 545.0,771.1 L 556.0,755.2 L 567.0,735.4 L 578.0,712.8 L 589.0,688.1 L 600.0,662.7" fill="none" stroke="#e7e2d6" stroke-width="1" opacity="0.12" />
  <path d="M -60.0,621.6 L -49.1,597.4 L -38.2,576.7 L -27.3,560.2 L -16.4,548.9 L -5.5,543.3 L 5.4,543.6 L 16.3,549.9 L 27.2,562.0 L 38.1,579.2 L 49.0,600.9 L 59.9,626.1 L 70.8,653.6 L 81.7,682.3 L 92.6,710.8 L 103.5,737.8 L 114.4,762.2 L 125.3,782.8 L 136.2,798.8 L 147.1,809.4 L 158.0,814.2 L 168.9,813.0 L 179.8,805.9 L 190.7,793.2 L 201.6,775.5 L 212.5,753.8 L 223.4,728.9 L 234.3,702.2 L 245.2,674.8 L 256.1,648.0 L 267.0,623.2 L 277.9,601.4 L 288.8,583.7 L 299.7,570.9 L 310.6,563.7 L 321.5,562.4 L 332.4,567.2 L 343.3,577.7 L 354.2,593.6 L 365.1,614.2 L 376.0,638.6 L 386.9,665.6 L 397.8,694.1 L 408.7,722.7 L 419.6,750.3 L 430.5,775.5 L 441.4,797.2 L 452.3,814.5 L 463.2,826.6 L 474.1,833.0 L 485.0,833.4 L 495.9,827.9 L 506.8,816.6 L 517.7,800.2 L 528.6,779.5 L 539.5,755.4 L 550.4,729.0 L 561.3,701.6 L 572.2,674.6 L 583.1,649.1 L 594.0,626.4" fill="none" stroke="#e7e2d6" stroke-width="1" opacity="0.098" />

  <path d="M 1660.0,746.3 L 1647.2,751.8 L 1634.4,755.6 L 1621.6,757.4 L 1608.8,757.3 L 1596.0,755.2 L 1583.2,751.4 L 1570.4,745.9 L 1557.6,739.0 L 1544.8,730.9 L 1532.0,722.0 L 1519.2,712.5 L 1506.4,703.0 L 1493.6,693.7 L 1480.8,685.0 L 1468.0,677.2 L 1455.2,670.6 L 1442.4,665.5 L 1429.6,662.2 L 1416.8,660.7 L 1404.0,661.1 L 1391.2,663.5 L 1378.4,667.7 L 1365.6,673.7 L 1352.8,681.3 L 1340.0,690.3 L 1327.2,700.3 L 1314.4,711.0 L 1301.6,722.1 L 1288.8,733.2 L 1276.0,744.0 L 1263.2,754.0 L 1250.4,763.0 L 1237.6,770.7 L 1224.8,776.8 L 1212.0,781.2 L 1199.2,783.7 L 1186.4,784.2 L 1173.6,782.8 L 1160.8,779.5 L 1148.0,774.6 L 1135.2,768.1 L 1122.4,760.4 L 1109.6,751.7 L 1096.8,742.4 L 1084.0,732.8 L 1071.2,723.4 L 1058.4,714.4 L 1045.6,706.3 L 1032.8,699.3 L 1020.0,693.7" fill="none" stroke="#dce8f2" stroke-width="1" opacity="0.2" />
  <path d="M 1660.0,721.6 L 1647.4,723.8 L 1634.7,723.6 L 1622.1,721.2 L 1609.4,716.6 L 1596.8,710.1 L 1584.2,701.9 L 1571.5,692.4 L 1558.9,681.9 L 1546.2,670.9 L 1533.6,659.9 L 1521.0,649.3 L 1508.3,639.4 L 1495.7,630.8 L 1483.0,623.7 L 1470.4,618.6 L 1457.8,615.5 L 1445.1,614.7 L 1432.5,616.1 L 1419.8,619.9 L 1407.2,625.8 L 1394.6,633.7 L 1381.9,643.3 L 1369.3,654.2 L 1356.6,666.2 L 1344.0,678.7 L 1331.4,691.4 L 1318.7,703.7 L 1306.1,715.3 L 1293.4,725.7 L 1280.8,734.5 L 1268.2,741.6 L 1255.5,746.5 L 1242.9,749.3 L 1230.2,749.7 L 1217.6,747.8 L 1205.0,743.8 L 1192.3,737.7 L 1179.7,730.0 L 1167.0,720.7 L 1154.4,710.5 L 1141.8,699.6 L 1129.1,688.5 L 1116.5,677.8 L 1103.8,667.7 L 1091.2,658.7 L 1078.6,651.2 L 1065.9,645.5 L 1053.3,641.9 L 1040.6,640.5 L 1028.0,641.3" fill="none" stroke="#dce8f2" stroke-width="1" opacity="0.182" />
  <path d="M 1660.0,690.3 L 1647.5,687.7 L 1635.0,682.7 L 1622.6,675.3 L 1610.1,666.0 L 1597.6,655.1 L 1585.1,643.1 L 1572.6,630.5 L 1560.2,618.0 L 1547.7,605.9 L 1535.2,594.8 L 1522.7,585.2 L 1510.2,577.5 L 1497.8,572.1 L 1485.3,569.3 L 1472.8,569.0 L 1460.3,571.5 L 1447.8,576.6 L 1435.4,584.1 L 1422.9,593.9 L 1410.4,605.4 L 1397.9,618.4 L 1385.4,632.3 L 1373.0,646.5 L 1360.5,660.6 L 1348.0,673.9 L 1335.5,686.1 L 1323.0,696.6 L 1310.6,705.1 L 1298.1,711.1 L 1285.6,714.7 L 1273.1,715.5 L 1260.6,713.6 L 1248.2,709.2 L 1235.7,702.4 L 1223.2,693.5 L 1210.7,682.9 L 1198.2,671.2 L 1185.8,658.7 L 1173.3,646.1 L 1160.8,633.8 L 1148.3,622.4 L 1135.8,612.4 L 1123.4,604.3 L 1110.9,598.3 L 1098.4,594.7 L 1085.9,593.8 L 1073.4,595.6 L 1061.0,600.1 L 1048.5,607.0 L 1036.0,616.3" fill="none" stroke="#dce8f2" stroke-width="1" opacity="0.164" />
  <path d="M 1660.0,649.7 L 1647.7,641.8 L 1635.4,631.6 L 1623.0,619.5 L 1610.7,606.0 L 1598.4,591.8 L 1586.1,577.6 L 1573.8,563.9 L 1561.4,551.4 L 1549.1,540.6 L 1536.8,532.1 L 1524.5,526.3 L 1512.2,523.4 L 1499.8,523.5 L 1487.5,526.9 L 1475.2,533.2 L 1462.9,542.3 L 1450.6,553.8 L 1438.2,567.3 L 1425.9,582.2 L 1413.6,597.9 L 1401.3,613.8 L 1389.0,629.2 L 1376.6,643.5 L 1364.3,656.2 L 1352.0,666.6 L 1339.7,674.5 L 1327.4,679.5 L 1315.0,681.4 L 1302.7,680.1 L 1290.4,675.8 L 1278.1,668.7 L 1265.8,659.2 L 1253.4,647.6 L 1241.1,634.4 L 1228.8,620.4 L 1216.5,606.1 L 1204.2,592.2 L 1191.8,579.2 L 1179.5,567.9 L 1167.2,558.7 L 1154.9,552.0 L 1142.6,548.2 L 1130.2,547.4 L 1117.9,549.8 L 1105.6,555.2 L 1093.3,563.5 L 1081.0,574.3 L 1068.6,587.3 L 1056.3,601.8 L 1044.0,617.3" fill="none" stroke="#dce8f2" stroke-width="1" opacity="0.146" />
  <path d="M 1660.0,599.0 L 1647.8,585.8 L 1635.7,571.0 L 1623.5,555.2 L 1611.4,539.2 L 1599.2,523.7 L 1587.0,509.5 L 1574.9,497.3 L 1562.7,487.6 L 1550.6,481.0 L 1538.4,477.7 L 1526.2,478.0 L 1514.1,481.9 L 1501.9,489.3 L 1489.8,499.7 L 1477.6,512.9 L 1465.4,528.2 L 1453.3,545.0 L 1441.1,562.6 L 1429.0,580.1 L 1416.8,596.9 L 1404.6,612.2 L 1392.5,625.3 L 1380.3,635.7 L 1368.2,643.0 L 1356.0,646.8 L 1343.8,647.0 L 1331.7,643.7 L 1319.5,637.0 L 1307.4,627.3 L 1295.2,615.0 L 1283.0,600.8 L 1270.9,585.3 L 1258.7,569.3 L 1246.6,553.5 L 1234.4,538.7 L 1222.2,525.6 L 1210.1,514.8 L 1197.9,506.8 L 1185.8,502.2 L 1173.6,501.0 L 1161.4,503.4 L 1149.3,509.4 L 1137.1,518.6 L 1125.0,530.7 L 1112.8,545.2 L 1100.6,561.5 L 1088.5,578.8 L 1076.3,596.5 L 1064.2,613.7 L 1052.0,629.6" fill="none" stroke="#dce8f2" stroke-width="1" opacity="0.128" />
  <path d="M 1660.0,538.5 L 1648.0,521.1 L 1636.0,503.3 L 1624.0,485.8 L 1612.0,469.6 L 1600.0,455.6 L 1588.0,444.3 L 1576.0,436.4 L 1564.0,432.4 L 1552.0,432.4 L 1540.0,436.5 L 1528.0,444.5 L 1516.0,456.1 L 1504.0,470.7 L 1492.0,487.8 L 1480.0,506.4 L 1468.0,525.8 L 1456.0,545.1 L 1444.0,563.3 L 1432.0,579.6 L 1420.0,593.4 L 1408.0,603.9 L 1396.0,610.6 L 1384.0,613.4 L 1372.0,612.1 L 1360.0,606.8 L 1348.0,597.8 L 1336.0,585.5 L 1324.0,570.7 L 1312.0,554.0 L 1300.0,536.3 L 1288.0,518.5 L 1276.0,501.5 L 1264.0,486.2 L 1252.0,473.2 L 1240.0,463.4 L 1228.0,457.1 L 1216.0,454.7 L 1204.0,456.5 L 1192.0,462.3 L 1180.0,471.9 L 1168.0,484.9 L 1156.0,500.6 L 1144.0,518.5 L 1132.0,537.5 L 1120.0,557.0 L 1108.0,575.9 L 1096.0,593.4 L 1084.0,608.7 L 1072.0,621.1 L 1060.0,630.1" fill="none" stroke="#dce8f2" stroke-width="1" opacity="0.11" />
  <path d="M 1660.0,470.3 L 1648.2,450.8 L 1636.3,432.3 L 1624.5,416.0 L 1612.6,402.6 L 1600.8,393.0 L 1589.0,387.5 L 1577.1,386.6 L 1565.3,390.4 L 1553.4,398.6 L 1541.6,411.0 L 1529.8,426.8 L 1517.9,445.4 L 1506.1,465.9 L 1494.2,487.2 L 1482.4,508.2 L 1470.6,528.1 L 1458.7,545.7 L 1446.9,560.3 L 1435.0,571.1 L 1423.2,577.7 L 1411.4,579.7 L 1399.5,577.0 L 1387.7,569.9 L 1375.8,558.7 L 1364.0,544.1 L 1352.2,526.9 L 1340.3,507.9 L 1328.5,488.2 L 1316.6,468.8 L 1304.8,450.7 L 1293.0,435.0 L 1281.1,422.4 L 1269.3,413.6 L 1257.4,409.2 L 1245.6,409.3 L 1233.8,414.1 L 1221.9,423.3 L 1210.1,436.4 L 1198.2,453.0 L 1186.4,472.1 L 1174.6,492.8 L 1162.7,514.1 L 1150.9,535.0 L 1139.0,554.5 L 1127.2,571.5 L 1115.4,585.3 L 1103.5,595.2 L 1091.7,600.7 L 1079.8,601.7 L 1068.0,598.0" fill="none" stroke="#dce8f2" stroke-width="1" opacity="0.092" />
  <path d="M 1660.0,398.2 L 1648.3,379.2 L 1636.6,363.2 L 1625.0,351.0 L 1613.3,343.5 L 1601.6,341.0 L 1589.9,343.8 L 1578.2,351.6 L 1566.6,364.2 L 1554.9,380.9 L 1543.2,400.8 L 1531.5,423.0 L 1519.8,446.2 L 1508.2,469.2 L 1496.5,491.0 L 1484.8,510.3 L 1473.1,526.1 L 1461.4,537.6 L 1449.8,544.3 L 1438.1,545.9 L 1426.4,542.2 L 1414.7,533.6 L 1403.0,520.5 L 1391.4,503.7 L 1379.7,484.2 L 1368.0,463.0 L 1356.3,441.3 L 1344.6,420.3 L 1333.0,401.3 L 1321.3,385.2 L 1309.6,372.9 L 1297.9,365.3 L 1286.2,362.7 L 1274.6,365.3 L 1262.9,373.0 L 1251.2,385.4 L 1239.5,402.0 L 1227.8,421.9 L 1216.2,444.0 L 1204.5,467.2 L 1192.8,490.3 L 1181.1,512.0 L 1169.4,531.4 L 1157.8,547.3 L 1146.1,559.0 L 1134.4,565.8 L 1122.7,567.5 L 1111.0,564.0 L 1099.4,555.5 L 1087.7,542.5 L 1076.0,525.9" fill="none" stroke="#dce8f2" stroke-width="1" opacity="0.074" />
  <path d="M 1660.0,326.7 L 1648.5,311.4 L 1637.0,301.0 L 1625.4,296.1 L 1613.9,297.0 L 1602.4,303.7 L 1590.9,315.8 L 1579.4,332.8 L 1567.8,353.6 L 1556.3,377.3 L 1544.8,402.4 L 1533.3,427.6 L 1521.8,451.5 L 1510.2,472.8 L 1498.7,490.3 L 1487.2,503.2 L 1475.7,510.6 L 1464.2,512.2 L 1452.6,508.1 L 1441.1,498.3 L 1429.6,483.7 L 1418.1,464.9 L 1406.6,443.3 L 1395.0,419.9 L 1383.5,396.2 L 1372.0,373.6 L 1360.5,353.4 L 1349.0,336.8 L 1337.4,324.8 L 1325.9,318.1 L 1314.4,317.1 L 1302.9,322.0 L 1291.4,332.5 L 1279.8,348.0 L 1268.3,367.7 L 1256.8,390.6 L 1245.3,415.4 L 1233.8,440.8 L 1222.2,465.2 L 1210.7,487.5 L 1199.2,506.3 L 1187.7,520.7 L 1176.2,529.9 L 1164.6,533.4 L 1153.1,531.0 L 1141.6,523.0 L 1130.1,509.8 L 1118.6,492.3 L 1107.0,471.4 L 1095.5,448.4 L 1084.0,424.7" fill="none" stroke="#dce8f2" stroke-width="1" opacity="0.056" />

  <!-- grid lines, faded toward the center -->
  <rect width="1600" height="1000" fill="url(#dots)" mask="url(#maskTR)" />
  <rect width="1600" height="1000" fill="url(#dots)" mask="url(#maskBL)" />

  <!-- solid soft spheres: flat base + blurred highlight, clipped to the sphere shape
       (avoids the banding a large smooth gradient causes when rasterized) -->
  <g clip-path="url(#clipTL)">
    <circle cx="200" cy="150" r="310" fill="#0e0f13" />
    <circle cx="130" cy="70" r="230" fill="#3a4252" opacity="0.65" filter="url(#heavyBlur)" />
  </g>
  <g clip-path="url(#clipBR)">
    <circle cx="1430" cy="880" r="360" fill="#0e0f13" />
    <circle cx="1350" cy="790" r="270" fill="#33465a" opacity="0.6" filter="url(#heavyBlur)" />
  </g>

  <!-- golden rim light on each sphere -->
  <path d="M 453.9,-27.8 L 461.5,-16.6 L 468.5,-5.0 L 475.0,6.9 L 481.0,19.0 L 486.4,31.4 L 491.3,44.0 L 495.7,56.8 L 499.4,69.8 L 502.7,82.9 L 505.3,96.2 L 507.3,109.5 L 508.8,123.0 L 509.7,136.5 L 510.0,150.0 L 509.7,163.5 L 508.8,177.0 L 507.3,190.5 L 505.3,203.8 L 502.7,217.1 L 499.4,230.2 L 495.7,243.2 L 491.3,256.0 L 486.4,268.6 L 481.0,281.0 L 475.0,293.1 L 468.5,305.0 L 461.5,316.6 L 453.9,327.8 L 445.9,338.7 L 437.5,349.3 L 428.6,359.4 L 419.2,369.2 L 409.4,378.6 L 399.3,387.5 L 388.7,395.9 L 377.8,403.9 L 366.6,411.5 L 355.0,418.5 L 343.1,425.0 L 331.0,431.0" fill="none" stroke="#e8c98a" stroke-width="10" opacity="0.55" filter="url(#rimGlow)" />
  <path d="M 453.9,-27.8 L 461.5,-16.6 L 468.5,-5.0 L 475.0,6.9 L 481.0,19.0 L 486.4,31.4 L 491.3,44.0 L 495.7,56.8 L 499.4,69.8 L 502.7,82.9 L 505.3,96.2 L 507.3,109.5 L 508.8,123.0 L 509.7,136.5 L 510.0,150.0 L 509.7,163.5 L 508.8,177.0 L 507.3,190.5 L 505.3,203.8 L 502.7,217.1 L 499.4,230.2 L 495.7,243.2 L 491.3,256.0 L 486.4,268.6 L 481.0,281.0 L 475.0,293.1 L 468.5,305.0 L 461.5,316.6 L 453.9,327.8 L 445.9,338.7 L 437.5,349.3 L 428.6,359.4 L 419.2,369.2 L 409.4,378.6 L 399.3,387.5 L 388.7,395.9 L 377.8,403.9 L 366.6,411.5 L 355.0,418.5 L 343.1,425.0 L 331.0,431.0" fill="none" stroke="#f5e2b8" stroke-width="3" opacity="0.7" />
  <path d="M 1103.7,727.9 L 1110.3,714.5 L 1117.4,701.4 L 1125.1,688.6 L 1133.3,676.1 L 1142.0,664.0 L 1151.2,652.2 L 1160.9,640.9 L 1171.0,629.9 L 1181.6,619.4 L 1192.6,609.3 L 1204.1,599.7 L 1215.9,590.6 L 1228.0,582.0 L 1240.6,573.9 L 1253.4,566.3 L 1266.6,559.2 L 1280.0,552.7 L 1293.7,546.8 L 1307.6,541.4 L 1321.7,536.7 L 1336.1,532.5 L 1350.5,528.9 L 1365.2,525.9 L 1379.9,523.5 L 1394.7,521.7 L 1409.6,520.6 L 1424.5,520.0 L 1439.4,520.1 L 1454.3,520.8 L 1469.2,522.1 L 1484.0,524.1 L 1498.7,526.6 L 1513.3,529.8 L 1527.7,533.5 L 1542.0,537.9 L 1556.1,542.8 L 1569.9,548.3 L 1583.6,554.4 L 1596.9,561.0 L 1610.0,568.2" fill="none" stroke="#e8c98a" stroke-width="10" opacity="0.5" filter="url(#rimGlow)" />
  <path d="M 1103.7,727.9 L 1110.3,714.5 L 1117.4,701.4 L 1125.1,688.6 L 1133.3,676.1 L 1142.0,664.0 L 1151.2,652.2 L 1160.9,640.9 L 1171.0,629.9 L 1181.6,619.4 L 1192.6,609.3 L 1204.1,599.7 L 1215.9,590.6 L 1228.0,582.0 L 1240.6,573.9 L 1253.4,566.3 L 1266.6,559.2 L 1280.0,552.7 L 1293.7,546.8 L 1307.6,541.4 L 1321.7,536.7 L 1336.1,532.5 L 1350.5,528.9 L 1365.2,525.9 L 1379.9,523.5 L 1394.7,521.7 L 1409.6,520.6 L 1424.5,520.0 L 1439.4,520.1 L 1454.3,520.8 L 1469.2,522.1 L 1484.0,524.1 L 1498.7,526.6 L 1513.3,529.8 L 1527.7,533.5 L 1542.0,537.9 L 1556.1,542.8 L 1569.9,548.3 L 1583.6,554.4 L 1596.9,561.0 L 1610.0,568.2" fill="none" stroke="#f5e2b8" stroke-width="3" opacity="0.65" />

  <rect width="1600" height="1000" filter="url(#grain)" />
</svg>
