<svg xmlns="http://www.w3.org/2000/svg" viewBox="0 0 700 500">
  <path d="M -40.0,380.0 L -28.0,385.3 L -16.0,390.5 L -4.0,395.6 L 8.0,400.3 L 20.0,404.7 L 32.0,408.7 L 44.0,412.1 L 56.0,415.0 L 68.0,417.3 L 80.0,418.9 L 92.0,419.8 L 104.0,420.0 L 116.0,419.5 L 128.0,418.3 L 140.0,416.4 L 152.0,413.8 L 164.0,410.7 L 176.0,407.0 L 188.0,402.9 L 200.0,398.3 L 212.0,393.4 L 224.0,388.3 L 236.0,383.0 L 248.0,377.7 L 260.0,372.4 L 272.0,367.2 L 284.0,362.3 L 296.0,357.7 L 308.0,353.5 L 320.0,349.7 L 332.0,346.5 L 344.0,343.9 L 356.0,341.9 L 368.0,340.6 L 380.0,340.0 L 392.0,340.2 L 404.0,341.0 L 416.0,342.5 L 428.0,344.7 L 440.0,347.5 L 452.0,350.8 L 464.0,354.7 L 476.0,359.1 L 488.0,363.8 L 500.0,368.8 L 512.0,374.0 L 524.0,379.3 L 536.0,384.7 L 548.0,389.9 L 560.0,395.0 L 572.0,399.8 L 584.0,404.2 L 596.0,408.2 L 608.0,411.7 L 620.0,414.7 L 632.0,417.0 L 644.0,418.7 L 656.0,419.7 L 668.0,420.0 L 680.0,419.6 L 692.0,418.4 L 704.0,416.6 L 716.0,414.2 L 728.0,411.1 L 740.0,407.5" fill="none" stroke="#8fbede" stroke-width="1" opacity="0.400" />
  <path d="M -40.0,435.0 L -28.0,440.5 L -16.0,445.7 L -4.0,450.5 L 8.0,454.8 L 20.0,458.5 L 32.0,461.7 L 44.0,464.3 L 56.0,466.2 L 68.0,467.4 L 80.0,467.9 L 92.0,467.6 L 104.0,466.7 L 116.0,465.0 L 128.0,462.7 L 140.0,459.7 L 152.0,456.1 L 164.0,452.0 L 176.0,447.4 L 188.0,442.4 L 200.0,437.0 L 212.0,431.3 L 224.0,425.4 L 236.0,419.5 L 248.0,413.5 L 260.0,407.5 L 272.0,401.8 L 284.0,396.2 L 296.0,391.0 L 308.0,386.1 L 320.0,381.7 L 332.0,377.8 L 344.0,374.5 L 356.0,371.9 L 368.0,369.9 L 380.0,368.5 L 392.0,367.9 L 404.0,368.0 L 416.0,368.9 L 428.0,370.4 L 440.0,372.6 L 452.0,375.5 L 464.0,378.9 L 476.0,383.0 L 488.0,387.5 L 500.0,392.5 L 512.0,397.8 L 524.0,403.4 L 536.0,409.3 L 548.0,415.2 L 560.0,421.2 L 572.0,427.2 L 584.0,433.0 L 596.0,438.6 L 608.0,443.9 L 620.0,448.8 L 632.0,453.3 L 644.0,457.3 L 656.0,460.7 L 668.0,463.5 L 680.0,465.6 L 692.0,467.0 L 704.0,467.8 L 716.0,467.8 L 728.0,467.1 L 740.0,465.7" fill="none" stroke="#8fbede" stroke-width="1" opacity="0.345" />
  <path d="M -40.0,494.4 L -28.0,499.2 L -16.0,503.4 L -4.0,507.1 L 8.0,510.2 L 20.0,512.6 L 32.0,514.4 L 44.0,515.4 L 56.0,515.8 L 68.0,515.4 L 80.0,514.3 L 92.0,512.5 L 104.0,510.1 L 116.0,507.0 L 128.0,503.3 L 140.0,499.0 L 152.0,494.2 L 164.0,489.0 L 176.0,483.4 L 188.0,477.4 L 200.0,471.2 L 212.0,464.8 L 224.0,458.3 L 236.0,451.7 L 248.0,445.2 L 260.0,438.8 L 272.0,432.7 L 284.0,426.8 L 296.0,421.2 L 308.0,416.1 L 320.0,411.4 L 332.0,407.3 L 344.0,403.7 L 356.0,400.8 L 368.0,398.5 L 380.0,396.9 L 392.0,396.0 L 404.0,395.8 L 416.0,396.3 L 428.0,397.5 L 440.0,399.4 L 452.0,402.0 L 464.0,405.2 L 476.0,409.0 L 488.0,413.4 L 500.0,418.3 L 512.0,423.6 L 524.0,429.3 L 536.0,435.4 L 548.0,441.6 L 560.0,448.1 L 572.0,454.6 L 584.0,461.1 L 596.0,467.6 L 608.0,473.9 L 620.0,480.0 L 632.0,485.9 L 644.0,491.3 L 656.0,496.4 L 668.0,501.0 L 680.0,505.0 L 692.0,508.4 L 704.0,511.2 L 716.0,513.4 L 728.0,514.9 L 740.0,515.6" fill="none" stroke="#8fbede" stroke-width="1" opacity="0.290" />
  <path d="M -40.0,554.4 L -28.0,557.5 L -16.0,560.1 L -4.0,561.9 L 8.0,563.1 L 20.0,563.6 L 32.0,563.4 L 44.0,562.5 L 56.0,560.9 L 68.0,558.7 L 80.0,555.8 L 92.0,552.2 L 104.0,548.1 L 116.0,543.4 L 128.0,538.3 L 140.0,532.7 L 152.0,526.7 L 164.0,520.4 L 176.0,513.8 L 188.0,507.0 L 200.0,500.0 L 212.0,493.0 L 224.0,486.1 L 236.0,479.2 L 248.0,472.4 L 260.0,465.8 L 272.0,459.6 L 284.0,453.6 L 296.0,448.1 L 308.0,443.0 L 320.0,438.4 L 332.0,434.4 L 344.0,431.0 L 356.0,428.2 L 368.0,426.0 L 380.0,424.6 L 392.0,423.8 L 404.0,423.7 L 416.0,424.3 L 428.0,425.6 L 440.0,427.6 L 452.0,430.2 L 464.0,433.5 L 476.0,437.4 L 488.0,441.8 L 500.0,446.8 L 512.0,452.2 L 524.0,458.1 L 536.0,464.3 L 548.0,470.7 L 560.0,477.5 L 572.0,484.3 L 584.0,491.3 L 596.0,498.3 L 608.0,505.3 L 620.0,512.1 L 632.0,518.7 L 644.0,525.1 L 656.0,531.2 L 668.0,536.9 L 680.0,542.2 L 692.0,547.0 L 704.0,551.3 L 716.0,554.9 L 728.0,558.0 L 740.0,560.4" fill="none" stroke="#8fbede" stroke-width="1" opacity="0.235" />
  <path d="M -40.0,610.4 L -28.0,611.3 L -16.0,611.5 L -4.0,611.1 L 8.0,609.9 L 20.0,608.2 L 32.0,605.7 L 44.0,602.6 L 56.0,599.0 L 68.0,594.7 L 80.0,589.9 L 92.0,584.6 L 104.0,578.9 L 116.0,572.8 L 128.0,566.3 L 140.0,559.5 L 152.0,552.4 L 164.0,545.2 L 176.0,537.9 L 188.0,530.5 L 200.0,523.2 L 212.0,515.9 L 224.0,508.7 L 236.0,501.7 L 248.0,495.0 L 260.0,488.6 L 272.0,482.6 L 284.0,476.9 L 296.0,471.8 L 308.0,467.1 L 320.0,463.0 L 332.0,459.5 L 344.0,456.6 L 356.0,454.3 L 368.0,452.7 L 380.0,451.8 L 392.0,451.5 L 404.0,451.9 L 416.0,453.0 L 428.0,454.8 L 440.0,457.2 L 452.0,460.3 L 464.0,463.9 L 476.0,468.2 L 488.0,472.9 L 500.0,478.2 L 512.0,483.9 L 524.0,490.1 L 536.0,496.5 L 548.0,503.3 L 560.0,510.3 L 572.0,517.5 L 584.0,524.9 L 596.0,532.2 L 608.0,539.6 L 620.0,546.9 L 632.0,554.1 L 644.0,561.1 L 656.0,567.8 L 668.0,574.2 L 680.0,580.3 L 692.0,585.9 L 704.0,591.1 L 716.0,595.7 L 728.0,599.9 L 740.0,603.4" fill="none" stroke="#8fbede" stroke-width="1" opacity="0.180" />
  <path d="M -40.0,658.0 L -28.0,656.3 L -16.0,653.9 L -4.0,651.0 L 8.0,647.4 L 20.0,643.3 L 32.0,638.6 L 44.0,633.4 L 56.0,627.8 L 68.0,621.7 L 80.0,615.2 L 92.0,608.4 L 104.0,601.4 L 116.0,594.0 L 128.0,586.5 L 140.0,578.9 L 152.0,571.2 L 164.0,563.5 L 176.0,555.8 L 188.0,548.3 L 200.0,540.9 L 212.0,533.7 L 224.0,526.7 L 236.0,520.1 L 248.0,513.8 L 260.0,508.0 L 272.0,502.6 L 284.0,497.6 L 296.0,493.3 L 308.0,489.4 L 320.0,486.2 L 332.0,483.6 L 344.0,481.6 L 356.0,480.2 L 368.0,479.5 L 380.0,479.5 L 392.0,480.1 L 404.0,481.4 L 416.0,483.3 L 428.0,485.8 L 440.0,489.0 L 452.0,492.8 L 464.0,497.1 L 476.0,501.9 L 488.0,507.3 L 500.0,513.1 L 512.0,519.3 L 524.0,525.9 L 536.0,532.8 L 548.0,540.0 L 560.0,547.3 L 572.0,554.9 L 584.0,562.6 L 596.0,570.3 L 608.0,578.0 L 620.0,585.6 L 632.0,593.1 L 644.0,600.5 L 656.0,607.6 L 668.0,614.4 L 680.0,620.9 L 692.0,627.1 L 704.0,632.8 L 716.0,638.0 L 728.0,642.7 L 740.0,646.9" fill="none" stroke="#8fbede" stroke-width="1" opacity="0.125" />
</svg>
