<svg xmlns="http://www.w3.org/2000/svg" viewBox="0 0 700 500">
  <path d="M -40.0,166.7 L -28.0,168.1 L -16.0,169.0 L -4.0,169.7 L 8.0,170.0 L 20.0,169.9 L 32.0,169.5 L 44.0,168.7 L 56.0,167.6 L 68.0,166.2 L 80.0,164.4 L 92.0,162.4 L 104.0,160.1 L 116.0,157.5 L 128.0,154.8 L 140.0,151.8 L 152.0,148.8 L 164.0,145.6 L 176.0,142.3 L 188.0,139.1 L 200.0,135.8 L 212.0,132.6 L 224.0,129.5 L 236.0,126.5 L 248.0,123.6 L 260.0,121.0 L 272.0,118.6 L 284.0,116.4 L 296.0,114.5 L 308.0,113.0 L 320.0,111.7 L 332.0,110.8 L 344.0,110.2 L 356.0,110.0 L 368.0,110.1 L 380.0,110.6 L 392.0,111.5 L 404.0,112.7 L 416.0,114.2 L 428.0,116.0 L 440.0,118.1 L 452.0,120.4 L 464.0,123.0 L 476.0,125.8 L 488.0,128.8 L 500.0,131.9 L 512.0,135.1 L 524.0,138.3 L 536.0,141.6 L 548.0,144.8 L 560.0,148.0 L 572.0,151.1 L 584.0,154.1 L 596.0,156.9 L 608.0,159.5 L 620.0,161.9 L 632.0,164.0 L 644.0,165.8 L 656.0,167.3 L 668.0,168.5 L 680.0,169.4 L 692.0,169.9 L 704.0,170.0 L 716.0,169.8 L 728.0,169.2 L 740.0,168.3" fill="none" stroke="#e8c98a" stroke-width="1" opacity="0.380" />
  <path d="M -40.0,225.2 L -28.0,225.4 L -16.0,225.3 L -4.0,224.9 L 8.0,224.0 L 20.0,222.8 L 32.0,221.2 L 44.0,219.2 L 56.0,217.0 L 68.0,214.4 L 80.0,211.6 L 92.0,208.5 L 104.0,205.2 L 116.0,201.7 L 128.0,198.0 L 140.0,194.3 L 152.0,190.4 L 164.0,186.5 L 176.0,182.6 L 188.0,178.7 L 200.0,174.9 L 212.0,171.2 L 224.0,167.6 L 236.0,164.2 L 248.0,160.9 L 260.0,158.0 L 272.0,155.3 L 284.0,152.8 L 296.0,150.7 L 308.0,149.0 L 320.0,147.5 L 332.0,146.5 L 344.0,145.8 L 356.0,145.5 L 368.0,145.5 L 380.0,146.0 L 392.0,146.8 L 404.0,148.0 L 416.0,149.6 L 428.0,151.5 L 440.0,153.8 L 452.0,156.3 L 464.0,159.1 L 476.0,162.2 L 488.0,165.5 L 500.0,169.0 L 512.0,172.6 L 524.0,176.4 L 536.0,180.2 L 548.0,184.1 L 560.0,188.0 L 572.0,191.9 L 584.0,195.8 L 596.0,199.5 L 608.0,203.1 L 620.0,206.5 L 632.0,209.7 L 644.0,212.7 L 656.0,215.5 L 668.0,217.9 L 680.0,220.0 L 692.0,221.8 L 704.0,223.3 L 716.0,224.4 L 728.0,225.1 L 740.0,225.4" fill="none" stroke="#e8c98a" stroke-width="1" opacity="0.320" />
  <path d="M -40.0,279.6 L -28.0,278.4 L -16.0,276.8 L -4.0,274.9 L 8.0,272.6 L 20.0,270.0 L 32.0,267.1 L 44.0,263.9 L 56.0,260.4 L 68.0,256.7 L 80.0,252.8 L 92.0,248.7 L 104.0,244.5 L 116.0,240.2 L 128.0,235.8 L 140.0,231.3 L 152.0,226.9 L 164.0,222.5 L 176.0,218.1 L 188.0,213.9 L 200.0,209.8 L 212.0,205.8 L 224.0,202.1 L 236.0,198.6 L 248.0,195.3 L 260.0,192.4 L 272.0,189.7 L 284.0,187.3 L 296.0,185.3 L 308.0,183.7 L 320.0,182.4 L 332.0,181.5 L 344.0,181.0 L 356.0,180.9 L 368.0,181.2 L 380.0,181.9 L 392.0,183.0 L 404.0,184.4 L 416.0,186.2 L 428.0,188.4 L 440.0,190.9 L 452.0,193.7 L 464.0,196.8 L 476.0,200.2 L 488.0,203.8 L 500.0,207.7 L 512.0,211.7 L 524.0,215.9 L 536.0,220.2 L 548.0,224.5 L 560.0,229.0 L 572.0,233.4 L 584.0,237.8 L 596.0,242.2 L 608.0,246.5 L 620.0,250.6 L 632.0,254.6 L 644.0,258.5 L 656.0,262.1 L 668.0,265.4 L 680.0,268.5 L 692.0,271.3 L 704.0,273.7 L 716.0,275.8 L 728.0,277.6 L 740.0,279.0" fill="none" stroke="#e8c98a" stroke-width="1" opacity="0.260" />
  <path d="M -40.0,326.6 L -28.0,323.7 L -16.0,320.6 L -4.0,317.2 L 8.0,313.4 L 20.0,309.5 L 32.0,305.3 L 44.0,300.9 L 56.0,296.4 L 68.0,291.8 L 80.0,287.0 L 92.0,282.2 L 104.0,277.3 L 116.0,272.4 L 128.0,267.6 L 140.0,262.8 L 152.0,258.1 L 164.0,253.5 L 176.0,249.0 L 188.0,244.8 L 200.0,240.7 L 212.0,236.9 L 224.0,233.4 L 236.0,230.1 L 248.0,227.2 L 260.0,224.5 L 272.0,222.3 L 284.0,220.3 L 296.0,218.8 L 308.0,217.6 L 320.0,216.8 L 332.0,216.4 L 344.0,216.4 L 356.0,216.8 L 368.0,217.6 L 380.0,218.8 L 392.0,220.3 L 404.0,222.3 L 416.0,224.6 L 428.0,227.2 L 440.0,230.2 L 452.0,233.4 L 464.0,237.0 L 476.0,240.8 L 488.0,244.8 L 500.0,249.1 L 512.0,253.5 L 524.0,258.1 L 536.0,262.8 L 548.0,267.6 L 560.0,272.4 L 572.0,277.3 L 584.0,282.2 L 596.0,287.0 L 608.0,291.8 L 620.0,296.5 L 632.0,301.0 L 644.0,305.3 L 656.0,309.5 L 668.0,313.5 L 680.0,317.2 L 692.0,320.6 L 704.0,323.8 L 716.0,326.6 L 728.0,329.1 L 740.0,331.3" fill="none" stroke="#e8c98a" stroke-width="1" opacity="0.200" />
  <path d="M -40.0,363.7 L -28.0,359.4 L -16.0,354.9 L -4.0,350.1 L 8.0,345.3 L 20.0,340.3 L 32.0,335.1 L 44.0,330.0 L 56.0,324.7 L 68.0,319.5 L 80.0,314.2 L 92.0,309.1 L 104.0,303.9 L 116.0,298.9 L 128.0,294.0 L 140.0,289.3 L 152.0,284.7 L 164.0,280.4 L 176.0,276.3 L 188.0,272.4 L 200.0,268.8 L 212.0,265.6 L 224.0,262.6 L 236.0,260.0 L 248.0,257.7 L 260.0,255.8 L 272.0,254.2 L 284.0,253.0 L 296.0,252.3 L 308.0,251.9 L 320.0,251.9 L 332.0,252.3 L 344.0,253.0 L 356.0,254.2 L 368.0,255.8 L 380.0,257.7 L 392.0,260.0 L 404.0,262.6 L 416.0,265.6 L 428.0,268.9 L 440.0,272.4 L 452.0,276.3 L 464.0,280.4 L 476.0,284.7 L 488.0,289.3 L 500.0,294.0 L 512.0,298.9 L 524.0,303.9 L 536.0,309.1 L 548.0,314.3 L 560.0,319.5 L 572.0,324.7 L 584.0,330.0 L 596.0,335.2 L 608.0,340.3 L 620.0,345.3 L 632.0,350.2 L 644.0,354.9 L 656.0,359.4 L 668.0,363.7 L 680.0,367.8 L 692.0,371.6 L 704.0,375.2 L 716.0,378.4 L 728.0,381.3 L 740.0,383.9" fill="none" stroke="#e8c98a" stroke-width="1" opacity="0.140" />
</svg>
