<svg xmlns="http://www.w3.org/2000/svg" viewBox="0 0 220 220">
  <defs>
    <linearGradient id="gt0" x1="180.71" y1="39.29" x2="101.28" y2="209.62" gradientUnits="userSpaceOnUse"><stop offset="0%" stop-color="#d3b8e6"/><stop offset="100%" stop-color="#9a63c8"/></linearGradient><linearGradient id="gt1" x1="180.71" y1="180.71" x2="10.38" y2="101.28" gradientUnits="userSpaceOnUse"><stop offset="0%" stop-color="#9a63c8"/><stop offset="100%" stop-color="#5c3494"/></linearGradient><linearGradient id="gt2" x1="39.29" y1="180.71" x2="118.72" y2="10.38" gradientUnits="userSpaceOnUse"><stop offset="0%" stop-color="#5c3494"/><stop offset="100%" stop-color="#3a2068"/></linearGradient><linearGradient id="gt3" x1="39.29" y1="39.29" x2="209.62" y2="118.72" gradientUnits="userSpaceOnUse"><stop offset="0%" stop-color="#c7a0dc"/><stop offset="100%" stop-color="#7a4bb0"/></linearGradient>
    <mask id="squircleHole">
      <rect x="0" y="0" width="220" height="220" fill="white"/>
      <rect x="68" y="68" width="84" height="84" rx="24" ry="24" fill="black" transform="rotate(45 110 110)"/>
    </mask>
  </defs>
  <g mask="url(#squircleHole)">
    <path d="M 110,110 L 180.71,39.29 A 100,100 0 0,1 101.28,209.62 Z" fill="url(#gt0)"/><path d="M 110,110 L 180.71,180.71 A 100,100 0 0,1 10.38,101.28 Z" fill="url(#gt1)"/><path d="M 110,110 L 39.29,180.71 A 100,100 0 0,1 118.72,10.38 Z" fill="url(#gt2)"/><path d="M 110,110 L 39.29,39.29 A 100,100 0 0,1 209.62,118.72 Z" fill="url(#gt3)"/>
  </g>
</svg>
